ModelForces
version=1
nRows=4
nColumns=206
inDegrees=no

This file contains the forces exerted on a model during a simulation.

A force is a generalized force, meaning that it can be either a force (N) or a torque (Nm).

Units are S.I. units (second, meters, Newtons, ...)
Angles are in degrees.

endheader
time	glut_med1_r	glut_med2_r	glut_med3_r	glut_min1_r	glut_min2_r	glut_min3_r	semimem_r	semiten_r	bifemlh_r	bifemsh_r	sar_r	add_long_r	add_brev_r	add_mag1_r	add_mag2_r	add_mag3_r	tfl_r	pect_r	grac_r	glut_max1_r	glut_max2_r	glut_max3_r	iliacus_r	psoas_r	quad_fem_r	gem_r	peri_r	rect_fem_r	vas_med_r	vas_int_r	vas_lat_r	med_gas_r	lat_gas_r	soleus_r	tib_post_r	flex_dig_r	flex_hal_r	tib_ant_r	per_brev_r	per_long_r	per_tert_r	ext_dig_r	ext_hal_r	glut_med1_l	glut_med2_l	glut_med3_l	glut_min1_l	glut_min2_l	glut_min3_l	semimem_l	semiten_l	bifemlh_l	bifemsh_l	sar_l	add_long_l	add_brev_l	add_mag1_l	add_mag2_l	add_mag3_l	tfl_l	pect_l	grac_l	glut_max1_l	glut_max2_l	glut_max3_l	iliacus_l	psoas_l	quad_fem_l	gem_l	peri_l	rect_fem_l	vas_med_l	vas_int_l	vas_lat_l	med_gas_l	lat_gas_l	soleus_l	tib_post_l	flex_dig_l	flex_hal_l	tib_ant_l	per_brev_l	per_long_l	per_tert_l	ext_dig_l	ext_hal_l	ercspn_r	ercspn_l	intobl_r	intobl_l	extobl_r	extobl_l	femur_lat_meniscii_l.femur_lat_l.force.X	femur_lat_meniscii_l.femur_lat_l.force.Y	femur_lat_meniscii_l.femur_lat_l.force.Z	femur_lat_meniscii_l.femur_lat_l.torque.X	femur_lat_meniscii_l.femur_lat_l.torque.Y	femur_lat_meniscii_l.femur_lat_l.torque.Z	femur_lat_meniscii_l.meniscus_lat_l.force.X	femur_lat_meniscii_l.meniscus_lat_l.force.Y	femur_lat_meniscii_l.meniscus_lat_l.force.Z	femur_lat_meniscii_l.meniscus_lat_l.torque.X	femur_lat_meniscii_l.meniscus_lat_l.torque.Y	femur_lat_meniscii_l.meniscus_lat_l.torque.Z	femur_med_meniscii_l.femur_med_l.force.X	femur_med_meniscii_l.femur_med_l.force.Y	femur_med_meniscii_l.femur_med_l.force.Z	femur_med_meniscii_l.femur_med_l.torque.X	femur_med_meniscii_l.femur_med_l.torque.Y	femur_med_meniscii_l.femur_med_l.torque.Z	femur_med_meniscii_l.meniscus_med_l.force.X	femur_med_meniscii_l.meniscus_med_l.force.Y	femur_med_meniscii_l.meniscus_med_l.force.Z	femur_med_meniscii_l.meniscus_med_l.torque.X	femur_med_meniscii_l.meniscus_med_l.torque.Y	femur_med_meniscii_l.meniscus_med_l.torque.Z	femur_lat_meniscii_r.femur_lat_r.force.X	femur_lat_meniscii_r.femur_lat_r.force.Y	femur_lat_meniscii_r.femur_lat_r.force.Z	femur_lat_meniscii_r.femur_lat_r.torque.X	femur_lat_meniscii_r.femur_lat_r.torque.Y	femur_lat_meniscii_r.femur_lat_r.torque.Z	femur_lat_meniscii_r.meniscus_lat_r.force.X	femur_lat_meniscii_r.meniscus_lat_r.force.Y	femur_lat_meniscii_r.meniscus_lat_r.force.Z	femur_lat_meniscii_r.meniscus_lat_r.torque.X	femur_lat_meniscii_r.meniscus_lat_r.torque.Y	femur_lat_meniscii_r.meniscus_lat_r.torque.Z	femur_med_meniscii_r.femur_med_r.force.X	femur_med_meniscii_r.femur_med_r.force.Y	femur_med_meniscii_r.femur_med_r.force.Z	femur_med_meniscii_r.femur_med_r.torque.X	femur_med_meniscii_r.femur_med_r.torque.Y	femur_med_meniscii_r.femur_med_r.torque.Z	femur_med_meniscii_r.meniscus_med_r.force.X	femur_med_meniscii_r.meniscus_med_r.force.Y	femur_med_meniscii_r.meniscus_med_r.force.Z	femur_med_meniscii_r.meniscus_med_r.torque.X	femur_med_meniscii_r.meniscus_med_r.torque.Y	femur_med_meniscii_r.meniscus_med_r.torque.Z	femur_med_tibia_l.tibia_upper_l.force.X	femur_med_tibia_l.tibia_upper_l.force.Y	femur_med_tibia_l.tibia_upper_l.force.Z	femur_med_tibia_l.tibia_upper_l.torque.X	femur_med_tibia_l.tibia_upper_l.torque.Y	femur_med_tibia_l.tibia_upper_l.torque.Z	femur_med_tibia_l.femur_med_l.force.X	femur_med_tibia_l.femur_med_l.force.Y	femur_med_tibia_l.femur_med_l.force.Z	femur_med_tibia_l.femur_med_l.torque.X	femur_med_tibia_l.femur_med_l.torque.Y	femur_med_tibia_l.femur_med_l.torque.Z	femur_lat_tibia_l.tibia_upper_l.force.X	femur_lat_tibia_l.tibia_upper_l.force.Y	femur_lat_tibia_l.tibia_upper_l.force.Z	femur_lat_tibia_l.tibia_upper_l.torque.X	femur_lat_tibia_l.tibia_upper_l.torque.Y	femur_lat_tibia_l.tibia_upper_l.torque.Z	femur_lat_tibia_l.femur_lat_l.force.X	femur_lat_tibia_l.femur_lat_l.force.Y	femur_lat_tibia_l.femur_lat_l.force.Z	femur_lat_tibia_l.femur_lat_l.torque.X	femur_lat_tibia_l.femur_lat_l.torque.Y	femur_lat_tibia_l.femur_lat_l.torque.Z	femur_med_tibia_r.tibia_upper_r.force.X	femur_med_tibia_r.tibia_upper_r.force.Y	femur_med_tibia_r.tibia_upper_r.force.Z	femur_med_tibia_r.tibia_upper_r.torque.X	femur_med_tibia_r.tibia_upper_r.torque.Y	femur_med_tibia_r.tibia_upper_r.torque.Z	femur_med_tibia_r.femur_med_r.force.X	femur_med_tibia_r.femur_med_r.force.Y	femur_med_tibia_r.femur_med_r.force.Z	femur_med_tibia_r.femur_med_r.torque.X	femur_med_tibia_r.femur_med_r.torque.Y	femur_med_tibia_r.femur_med_r.torque.Z	femur_lat_tibia_r.tibia_upper_r.force.X	femur_lat_tibia_r.tibia_upper_r.force.Y	femur_lat_tibia_r.tibia_upper_r.force.Z	femur_lat_tibia_r.tibia_upper_r.torque.X	femur_lat_tibia_r.tibia_upper_r.torque.Y	femur_lat_tibia_r.tibia_upper_r.torque.Z	femur_lat_tibia_r.femur_lat_r.force.X	femur_lat_tibia_r.femur_lat_r.force.Y	femur_lat_tibia_r.femur_lat_r.force.Z	femur_lat_tibia_r.femur_lat_r.torque.X	femur_lat_tibia_r.femur_lat_r.torque.Y	femur_lat_tibia_r.femur_lat_r.torque.Z	aACL_R	pACL_R	aPCL_R	pPCL_R	aMCL_R	mMCL_R	pMCL_R	aLCL_R	mLCL_R	pLCL_R	aPCL_L	pPCL_L	aMCL_L	aLCL_L	ground_prescribedForce_-40_fx	ground_prescribedForce_-40_fy	ground_prescribedForce_-40_fz
      0.26743944	      8.56406217	      6.36353238	      6.82148983	      2.97170676	      3.51785989	      3.62156821	      3.49771775	      4.11170139	      8.35506045	      8.96692158	      1.60678190	      6.31320514	      4.62347495	      3.27575981	      2.76130776	      4.54291019	      4.82985084	      2.50385896	      1.58814035	      4.10626815	      6.24230119	      4.66957173	     23.91546348	     14.39769286	      4.06315366	      3.06006261	      4.86426805	     21.97809274	     15.80482818	     18.24924413	     25.92029817	      1.87819017	      1.34404679	     10.43877406	     10.43311791	      3.07499225	      2.35132184	     14.41732611	      4.43315683	      8.62322463	      7.56997390	      5.78832308	      2.46579472	      8.56406217	      6.36353238	      6.82148983	      2.97170676	      3.51785989	      3.62156821	     10.20658872	      4.62744154	      8.90605348	      8.08511582	      1.69764351	      6.31320514	      4.62347495	      3.27575981	      2.76130776	      4.54291019	      4.44100693	      2.50385896	      1.74453228	      4.10626815	      6.24230119	      4.66957173	     23.91546348	     14.39769286	      4.06315366	      3.06006261	      4.86426805	     12.33472399	      7.42530619	      8.53682084	      9.17434952	     17.07514726	      7.93024240	     36.97148810	     44.72134666	      3.36978403	      3.49271185	      9.71112363	      5.07562487	     14.12514248	      2.22748577	      6.22295949	      1.96059054	     27.95521962	     27.95521962	     10.16113234	     10.16113234	     27.84799317	     27.84799317	      2.76307435	     50.99597937	     -9.56042239	      5.21997485	     -0.02578839	      1.48581788	     -2.76307435	    -50.99597937	      9.56042239	     -1.74637766	      0.02558040	     -0.48301696	     -3.31599387	     20.97615968	     -3.40468921	      0.94473225	     -0.02138609	     -1.00501789	      3.31599387	    -20.97615968	      3.40468921	      0.28075727	      0.00368718	     -0.29758878	    149.38221703	     77.16658848	     19.27201386	     -9.81456843	      3.70751155	     61.54812821	   -149.38221703	    -77.16658848	    -19.27201386	      2.74744328	     -4.66726349	     -2.92614846	    275.27182541	     96.75842541	    -19.65278361	      9.90012738	     -5.38566231	    112.15161133	   -275.27182541	    -96.75842541	     19.65278361	     -1.89584537	      4.42064554	     -4.78871267	      0.00000000	      0.00000000	      0.00000000	      0.00000000	      0.00000000	      0.00000000	      0.00000000	      0.00000000	      0.00000000	      0.00000000	      0.00000000	      0.00000000	      0.00000000	      0.00000000	      0.00000000	      0.00000000	      0.00000000	      0.00000000	      0.00000000	      0.00000000	      0.00000000	      0.00000000	      0.00000000	      0.00000000	     -9.01546146	    -10.72634619	      7.25016321	     -0.33928376	      0.19909843	     -0.12661808	      9.01546146	     10.72634619	     -7.25016321	      3.17866589	     -0.13447291	      3.75295518	      0.00000000	      0.00000000	      0.00000000	      0.00000000	      0.00000000	      0.00000000	      0.00000000	      0.00000000	      0.00000000	      0.00000000	      0.00000000	      0.00000000	      0.00000000	      0.00000000	    248.47106565	    133.13683723	      1.47527094	      1.64805545	      0.00000000	      0.00000000	      0.00000000	      0.00000000	      0.00000000	      0.00000000	      0.00000001	      0.00000000	     84.26488000	    -70.70660000	      0.00000000
      0.27010562	      8.52934543	      6.33976087	      6.79569022	      2.96107620	      3.50632084	      3.60692012	      3.49956772	      4.10722724	      8.34156091	      8.94944746	      1.63148137	      6.28934355	      4.60708653	      3.26360309	      2.75081426	      4.52391981	      4.82789988	      2.49484283	      1.58715141	      4.09092045	      6.21890274	      4.65175635	     23.87217704	     14.34868622	      4.04829998	      3.05301220	      4.83880423	     22.00934893	     15.78180441	     18.20022907	     25.85199089	      1.85819251	      1.33940261	     10.40444273	     10.28681401	      3.08790120	      2.29104324	     14.33426089	      4.47223566	      8.65837025	      7.60940036	      5.74786255	      2.49047765	      8.52934543	      6.33976087	      6.79569022	      2.96107620	      3.50632084	      3.60692012	     10.15724445	      4.60885358	      8.86454444	      8.05553647	      1.69159854	      6.28934355	      4.60708653	      3.26360309	      2.75081426	      4.52391981	      4.42923933	      2.49484283	      1.73821157	      4.09092045	      6.21890274	      4.65175635	     23.87217704	     14.34868622	      4.04829998	      3.05301220	      4.83880423	     12.27805122	      7.39686927	      8.50351162	      9.13869281	     16.97770403	      7.88493714	     36.77765201	     44.64203117	      3.34939852	      3.47375537	      9.66818068	      5.05069030	     14.07059127	      2.21990706	      6.18846526	      1.95002795	     27.85498849	     27.85498849	     10.12150978	     10.12150978	     27.81236668	     27.81236668	      2.76307435	     50.99597937	     -9.56042239	      5.21997485	     -0.02578839	      1.48581788	     -2.76307435	    -50.99597937	      9.56042239	     -1.74637766	      0.02558040	     -0.48301696	     -3.31599387	     20.97615968	     -3.40468921	      0.94473225	     -0.02138609	     -1.00501789	      3.31599387	    -20.97615968	      3.40468921	      0.28075727	      0.00368718	     -0.29758878	    146.38254386	     75.84514817	     19.84139619	    -10.02126510	      3.63416160	     60.32143404	   -146.38254386	    -75.84514817	    -19.84139619	      2.72726664	     -4.58721022	     -2.86589255	    273.70900933	     95.50419143	    -20.24532554	     10.11799805	     -5.34910052	    111.52358062	   -273.70900933	    -95.50419143	     20.24532554	     -1.89171783	      4.40360746	     -4.76765548	      0.00000000	      0.00000000	      0.00000000	      0.00000000	      0.00000000	      0.00000000	      0.00000000	      0.00000000	      0.00000000	      0.00000000	      0.00000000	      0.00000000	      0.00000000	      0.00000000	      0.00000000	      0.00000000	      0.00000000	      0.00000000	      0.00000000	      0.00000000	      0.00000000	      0.00000000	      0.00000000	      0.00000000	     -8.62064438	    -10.20013276	      6.91080699	     -0.32335303	      0.19007039	     -0.12223135	      8.62064438	     10.20013276	     -6.91080699	      3.02987015	     -0.12833798	      3.58949652	      0.00000000	      0.00000000	      0.00000000	      0.00000000	      0.00000000	      0.00000000	      0.00000000	      0.00000000	      0.00000000	      0.00000000	      0.00000000	      0.00000000	      0.00000000	      0.00000000	    246.18817324	    131.32288469	      1.16741446	      1.31289338	      0.00000000	      0.00000000	      0.00000000	      0.00000000	      0.00000000	      0.00000000	      0.00000001	      0.00000000	     84.26488000	    -70.70660000	      0.00000000
      0.27277181	      8.49582196	      6.31680245	      6.77077422	      2.95080780	      3.49517608	      3.59277532	      3.49459985	      4.09844974	      8.33311811	      8.92196089	      1.60634819	      6.26629920	      4.59125682	      3.25186223	      2.74068063	      4.50558272	      4.82148092	      2.48613409	      1.58083222	      4.07609845	      6.19630583	      4.63455204	     23.83037745	     14.30137173	      4.03395337	      3.04620555	      4.81416984	     22.04633476	     15.78574013	     18.19374412	     25.86958959	      1.82478797	      1.32398810	     10.36599061	     10.14974132	      3.09225824	      2.22646758	     14.26542119	      4.50400683	      8.69014265	      7.63967774	      5.74725076	      2.51821233	      8.49582196	      6.31680245	      6.77077422	      2.95080780	      3.49517608	      3.59277532	     10.10956206	      4.59090423	      8.82444460	      8.02696712	      1.68575950	      6.26629920	      4.59125682	      3.25186223	      2.74068063	      4.50558272	      4.41787668	      2.48613409	      1.73210644	      4.07609845	      6.19630583	      4.63455204	     23.83037745	     14.30137173	      4.03395337	      3.04620555	      4.81416984	     12.22330723	      7.36940966	      8.47134874	      9.10426417	     16.88326652	      7.84103003	     36.59014200	     44.56538214	      3.32986669	      3.45540431	      9.62670768	      5.02659121	     14.01780488	      2.21258939	      6.15510526	      1.93982067	     27.75817252	     27.75817252	     10.08324675	     10.08324675	     27.77796459	     27.77796459	      2.76307435	     50.99597937	     -9.56042239	      5.21997485	     -0.02578839	      1.48581788	     -2.76307435	    -50.99597937	      9.56042239	     -1.74637766	      0.02558040	     -0.48301696	     -3.31599387	     20.97615968	     -3.40468921	      0.94473225	     -0.02138609	     -1.00501789	      3.31599387	    -20.97615968	      3.40468921	      0.28075727	      0.00368718	     -0.29758878	    143.27878561	     75.09951050	     20.89227520	    -10.44549524	      3.54685587	     59.04140600	   -143.27878561	    -75.09951050	    -20.89227520	      2.74199668	     -4.50022760	     -2.78397798	    273.70221138	     94.39130964	    -21.51063022	     10.61750811	     -5.35008645	    111.53476493	   -273.70221138	    -94.39130964	     21.51063022	     -1.90931497	      4.42641292	     -4.78452363	      0.00000000	      0.00000000	      0.00000000	      0.00000000	      0.00000000	      0.00000000	      0.00000000	      0.00000000	      0.00000000	      0.00000000	      0.00000000	      0.00000000	      0.00000000	      0.00000000	      0.00000000	      0.00000000	      0.00000000	      0.00000000	      0.00000000	      0.00000000	      0.00000000	      0.00000000	      0.00000000	      0.00000000	     -8.56120034	    -10.06520348	      6.87327059	     -0.32109312	      0.18907670	     -0.12260682	      8.56120034	     10.06520348	     -6.87327059	      3.01271765	     -0.12736252	      3.56561148	      0.00000000	      0.00000000	      0.00000000	      0.00000000	      0.00000000	      0.00000000	      0.00000000	      0.00000000	      0.00000000	      0.00000000	      0.00000000	      0.00000000	      0.00000000	      0.00000000	    243.23047456	    128.79497499	      0.90731003	      1.04145887	      0.00000000	      0.00000000	      0.00000000	      0.00000000	      0.00000000	      0.00000000	      0.00000001	      0.00000000	     84.26488000	    -70.70660000	      0.00000000
      0.27477732	      8.47136662	      6.30005181	      6.75259601	      2.94331490	      3.48704452	      3.58245657	      3.48667310	      4.08837958	      8.33712733	      8.91683342	      1.60801986	      6.24948652	      4.57970527	      3.24329603	      2.73328765	      4.49220619	      4.81626762	      2.47977946	      1.57454024	      4.06528464	      6.17981968	      4.62200069	     23.79988401	     14.26686064	      4.02348535	      3.04124098	      4.79616997	     22.09129845	     15.81225683	     18.22637891	     25.93150329	      1.80880760	      1.31483055	     10.36558093	     10.06851044	      3.09275297	      2.17787244	     14.21633594	      4.51577157	      8.70457752	      7.65538977	      5.76811544	      2.53909247	      8.47136662	      6.30005181	      6.75259601	      2.94331490	      3.48704452	      3.58245657	     10.07475638	      4.57781000	      8.79518084	      8.00612159	      1.68149864	      6.24948652	      4.57970527	      3.24329603	      2.73328765	      4.49220619	      4.40958795	      2.47977946	      1.72765169	      4.06528464	      6.17981968	      4.62200069	     23.79988401	     14.26686064	      4.02348535	      3.04124098	      4.79616997	     12.18335958	      7.34937779	      8.44788683	      9.07915001	     16.81415426	      7.80889787	     36.45313996	     44.50942855	      3.31571328	      3.44198532	      9.59644941	      5.00899734	     13.97922668	      2.20725150	      6.13073856	      1.93237031	     27.68752605	     27.68752605	     10.05533240	     10.05533240	     27.75286814	     27.75286814	      2.76307435	     50.99597937	     -9.56042239	      5.21997485	     -0.02578839	      1.48581788	     -2.76307435	    -50.99597937	      9.56042239	     -1.74637766	      0.02558040	     -0.48301696	     -3.31599387	     20.97615968	     -3.40468921	      0.94473225	     -0.02138609	     -1.00501789	      3.31599387	    -20.97615968	      3.40468921	      0.28075727	      0.00368718	     -0.29758878	    141.95318031	     74.09488310	     21.04887785	    -10.48211881	      3.51516983	     58.50807908	   -141.95318031	    -74.09488310	    -21.04887785	      2.71270677	     -4.46441888	     -2.76984667	    273.06845109	     94.66431320	    -20.92365641	     10.37730582	     -5.32412071	    111.27307556	   -273.06845109	    -94.66431320	     20.92365641	     -1.89378331	      4.39679316	     -4.75261461	      0.00000000	      0.00000000	      0.00000000	      0.00000000	      0.00000000	      0.00000000	      0.00000000	      0.00000000	      0.00000000	      0.00000000	      0.00000000	      0.00000000	      0.00000000	      0.00000000	      0.00000000	      0.00000000	      0.00000000	      0.00000000	      0.00000000	      0.00000000	      0.00000000	      0.00000000	      0.00000000	      0.00000000	     -8.63759111	    -10.16935962	      6.93589649	     -0.32419575	      0.19090496	     -0.12345011	      8.63759111	     10.16935962	     -6.93589649	      3.04055099	     -0.12842758	      3.59785619	      0.00000000	      0.00000000	      0.00000000	      0.00000000	      0.00000000	      0.00000000	      0.00000000	      0.00000000	      0.00000000	      0.00000000	      0.00000000	      0.00000000	      0.00000000	      0.00000000	    241.01688598	    127.38108457	      0.95328846	      1.10035284	      0.00000000	      0.00000000	      0.00000000	      0.00000000	      0.00000000	      0.00000000	      0.00000001	      0.00000000	     84.26488000	    -70.70660000	      0.00000000
